<svg xmlns="http://www.w3.org/2000/svg" viewBox="0 0 376.53 91.22"><defs><linearGradient id="a" x1="47.95" x2="34.61" y1="-3.94" y2="87.72" gradientUnits="userSpaceOnUse"><stop offset="0" stop-color="#ff8e38"/><stop offset="1" stop-color="#ff4629"/></linearGradient><linearGradient id="d" x1="193.25" x2="191.83" y1="4.89" y2="17.29" href="#a"/><clipPath id="b" transform="translate(0 .87)"><path fill="none" d="m60.76 65.77-1.82-3-4.12-6.72a21.14 21.14 0 1 0-28.62 0L10.72 81.32a1.4 1.4 0 0 1-.66.57 1.45 1.45 0 0 1-.9 0 1.3 1.3 0 0 1-1-1.34V40.51a32.36 32.36 0 1 1 57 21 31.7 31.7 0 0 1-4.4 4.28m-20.25 7a32.4 32.4 0 0 0 7.22-.71 32.7 32.7 0 0 0 6.08-2l-1.81-3-6-9.87a4.07 4.07 0 0 1 1.35-5.6 13 13 0 1 0-13.59 0 4.08 4.08 0 0 1 1.36 5.6l-3.93 6.41L27.81 69l-.6 1a30.1 30.1 0 0 0 13.3 2.77ZM18.69 83.9l-1 1.66A9.53 9.53 0 0 1 13 89.48a9.42 9.42 0 0 1-6 .28 9.46 9.46 0 0 1-7-9.18V40.51A40.46 40.46 0 1 1 41.82 81h-1.31a40.3 40.3 0 0 1-17.59-4z" clip-rule="evenodd"/></clipPath><clipPath id="c" transform="translate(0 .87)"><path fill="none" d="M185.56 11.91a6.6 6.6 0 0 1 2.29-5.14 8.32 8.32 0 0 1 5.77-2 6.12 6.12 0 0 1 4.23 1.38 4.6 4.6 0 0 1 1.54 3.6 6.57 6.57 0 0 1-2.25 5.1 8.28 8.28 0 0 1-5.73 2 6.37 6.37 0 0 1-4.31-1.34 4.48 4.48 0 0 1-1.54-3.56" clip-rule="evenodd"/></clipPath></defs><g clip-path="url(#b)"><path fill="url(#a)" d="M0 0h81.49v91.22H0z"/></g><path fill="#333" fill-rule="evenodd" d="M122.38 53.87a12 12 0 0 0 8.21-3.09 14.56 14.56 0 0 0 4.51-8.55 19 19 0 0 0 .22-2.76 8.9 8.9 0 0 0-2.32-6.6 8.9 8.9 0 0 0-6.51-2.33 12 12 0 0 0-8.22 3.17 14.34 14.34 0 0 0-4.51 8.54 17.6 17.6 0 0 0-.26 2.62 8.9 8.9 0 0 0 2.44 6.62 8.77 8.77 0 0 0 6.44 2.4m8.94-32.29q6.69 0 10.66 4.14t4 11.49a30.6 30.6 0 0 1-.44 5 29 29 0 0 1-4.29 11 21.66 21.66 0 0 1-7.63 7.16 19.67 19.67 0 0 1-9.62 2.48 13.2 13.2 0 0 1-8.26-2.43 10.48 10.48 0 0 1-4-6.51L108 75.28H97.74l9.36-53.18h10.26l-1.53 8.36a16.8 16.8 0 0 1 6.33-6.47 17.7 17.7 0 0 1 9.16-2.4ZM164 29.81a21.6 21.6 0 0 1 7-6.08 18.15 18.15 0 0 1 8.76-2.21l-2 11h-3q-11.28 0-13.09 10.47l-3.42 19.42H148l7.13-40.29h10.25Zm31.56-7.71-7.12 40.29h-10.26l7.13-40.29z"/><g clip-path="url(#c)"><path fill="url(#d)" d="M185.56 5.59h13.83v12.1h-13.83z"/></g><path fill="#333" fill-rule="evenodd" d="m215.78 52.13 15.49-30.03h10.91l-22.04 40.29h-12.5l-7.71-40.29h10.91zm47.33-21.6a12 12 0 0 0-8.29 3.13 14.42 14.42 0 0 0-4.44 8.58 25 25 0 0 0-.29 2.84 8.7 8.7 0 0 0 2.36 6.47 8.9 8.9 0 0 0 6.55 2.32 12 12 0 0 0 8.22-3.17 14.22 14.22 0 0 0 4.51-8.47 21 21 0 0 0 .29-2.76 8.34 8.34 0 0 0-8.87-8.95M261 21.59a14.22 14.22 0 0 1 8.62 2.43 10.3 10.3 0 0 1 4.11 6.44l1.52-8.36h10.18l-7.12 40.29h-10.18l1.52-8.44a17.24 17.24 0 0 1-6.32 6.51 17.56 17.56 0 0 1-9.17 2.41q-6.82 0-10.76-4.21t-3.93-11.69a31 31 0 0 1 .51-5.6 27.2 27.2 0 0 1 4.15-10.5 21 21 0 0 1 7.45-6.87 19.7 19.7 0 0 1 9.42-2.41m50.85 0q8 0 12.58 4.22T329 37.3h-10.82a7.05 7.05 0 0 0-2.18-5.06 7.78 7.78 0 0 0-5.49-1.85 10.5 10.5 0 0 0-7.38 3q-3.24 3-4.26 8.83a18 18 0 0 0-.29 3.27q0 4.23 2.15 6.4a7.43 7.43 0 0 0 5.56 2.19 10.56 10.56 0 0 0 6.22-1.86 10.7 10.7 0 0 0 3.89-5h10.84A22.92 22.92 0 0 1 305 62.87q-7.77 0-12.36-4.4t-4.58-12.18a29 29 0 0 1 .44-4.94 24.5 24.5 0 0 1 4.43-10.58 22.26 22.26 0 0 1 8.26-6.84 24.3 24.3 0 0 1 10.65-2.36m32.18.53 6.18 27.34 14.98-27.34h11.35L345 75.28h-11.15l8.79-14.06L332.6 22.1zm20.28 45.77a.95.95 0 1 1 0 1.89h-1.7v-1.89Zm2.41 4.78-1.78-2a1.75 1.75 0 0 0 1.49-1.85 2 2 0 0 0-2.12-2h-2.81v5.9h1.11v-2h1.07l1.72 2h1.32Z"/><path fill="#333" fill-rule="evenodd" d="M367.28 66.32a4.83 4.83 0 1 0 1.41 3.41 4.8 4.8 0 0 0-1.41-3.41m-3.41-2.14a5.57 5.57 0 1 1-3.87 1.63 5.5 5.5 0 0 1 3.87-1.63"/></svg>