<svg xmlns="http://www.w3.org/2000/svg" width="320" height="360" fill="none" viewBox="0 0 320 360"><path fill="url(#a)" d="m119.889 271.328 1.756-2.934 10.037-16.423 11.878-19.357c3.513-5.781 1.673-13.323-4.099-16.925-7.444-4.61-12.965-11.397-15.976-19.106-3.011-7.792-3.596-16.507-1.254-24.97A38.55 38.55 0 0 1 136.283 151a39.04 39.04 0 0 1 23.588-7.96 39.04 39.04 0 0 1 23.588 7.96c6.608 5.027 11.626 12.15 14.052 20.613 2.342 8.463 1.84 17.178-1.254 24.97a38.64 38.64 0 0 1-15.976 19.106c-5.772 3.519-7.613 11.06-4.1 16.925l18.235 29.831 5.521 8.966c-5.939 2.681-12.045 4.692-18.318 6.117-7.11 1.592-14.471 2.095-21.748 2.095h-2.091c-13.133 0-26.014-2.849-37.975-8.38M81.83 124.019c12.296-16.509 29.694-29.077 50.354-35.194 20.661-6.117 42.157-5.111 61.396 2.01 19.238 7.124 36.218 20.279 48.012 38.378 11.794 18.1 16.897 39.048 15.558 59.578-1.338 20.529-9.034 40.64-23.002 57.063-4.099 4.777-8.532 9.05-13.216 12.904l-5.521-8.965-12.38-20.279a63.9 63.9 0 0 0 16.228-23.713 63.9 63.9 0 0 0 2.007-40.556c-3.847-13.743-12.045-25.39-22.835-33.602s-24.173-12.904-38.393-12.904-27.602 4.777-38.393 12.904c-10.79 8.212-18.987 19.776-22.835 33.602a63.92 63.92 0 0 0 2.007 40.556c3.513 8.882 8.95 17.094 16.228 23.713l-46.59 76.169a4.47 4.47 0 0 1-2.008 1.76c-.837.335-1.757.335-2.677.083-.92-.251-1.673-.754-2.175-1.424s-.752-1.592-.752-2.598V182.59c0-21.535 7.11-41.897 19.405-58.404m42.994-58.99c-25.93 7.708-47.761 23.461-63.069 44.075C46.866 129.8 38 155.273 38 182.338v120.915c0 6.452 2.091 12.485 5.772 17.345s8.95 8.547 15.14 10.307c6.189 1.76 12.546 1.34 18.234-.838 5.688-2.262 10.623-6.285 14.052-11.815l3.095-5.028 12.714-20.864c16.562 7.96 34.629 12.15 53.031 12.066h3.931a120.3 120.3 0 0 0 23.17-3.016c25.01-5.699 48.263-19.357 65.745-39.97 17.566-20.614 27.269-45.751 28.857-71.393 1.673-25.64-4.767-51.784-19.489-74.492-14.721-22.708-36.051-39.215-60.14-48.014A121.3 121.3 0 0 0 160.038 60c-14.47 0-23.254 1.676-34.713 5.028"/><defs><linearGradient id="a" x1="32.563" x2="246.571" y1="309.956" y2="96.328" gradientUnits="userSpaceOnUse"><stop stop-color="#fff"/><stop offset=".4" stop-color="#fcfbf9"/><stop offset=".9" stop-color="#f6f1ea"/><stop offset="1" stop-color="#f4eee5"/></linearGradient></defs></svg>